<svg width="32" height="32" viewBox="0 0 32 32" fill="none" xmlns="http://www.w3.org/2000/svg">
<g clip-path="url(#clip0_1427_1377)">
<path d="M31.9998 14.9962C31.807 11.8763 30.7053 8.88091 28.8307 6.37947C26.9561 3.87802 24.3905 1.97982 21.4501 0.918893C18.5097 -0.142038 15.3231 -0.319323 12.2832 0.408893C9.24329 1.13711 6.48292 2.73899 4.3424 5.01706C2.20188 7.29512 0.774784 10.1498 0.237052 13.2291C-0.30068 16.3084 0.0744579 19.4778 1.31622 22.3465C2.55798 25.2152 4.61207 27.6578 7.22527 29.3732C9.83847 31.0886 12.8965 32.0018 16.0225 32.0002H25.3331C27.1007 31.9985 28.7954 31.2955 30.0452 30.0457C31.2951 28.7958 31.998 27.1011 31.9998 25.3336V14.9962ZM29.3331 25.3336C29.3331 26.3944 28.9117 27.4118 28.1616 28.162C27.4114 28.9121 26.394 29.3336 25.3331 29.3336H16.0225C14.141 29.3327 12.2809 28.9353 10.5634 28.1673C8.84586 27.3993 7.30949 26.2779 6.05446 24.8762C4.79336 23.4753 3.84637 21.8209 3.27699 20.024C2.70761 18.227 2.52899 16.3292 2.75313 14.4576C3.10704 11.5055 4.43338 8.75515 6.52305 6.64013C8.61272 4.52511 11.3469 3.16571 14.2945 2.77623C14.8694 2.70417 15.4483 2.66765 16.0278 2.6669C19.1351 2.65842 22.1462 3.7441 24.5331 5.73357C25.9272 6.89216 27.0714 8.32177 27.8965 9.93574C28.7216 11.5497 29.2103 13.3144 29.3331 15.1229V25.3336Z" fill="white"/>
<path d="M10.6663 11.9998H15.9997C16.3533 11.9998 16.6924 11.8593 16.9425 11.6093C17.1925 11.3592 17.333 11.0201 17.333 10.6665C17.333 10.3128 17.1925 9.9737 16.9425 9.72365C16.6924 9.47361 16.3533 9.33313 15.9997 9.33313H10.6663C10.3127 9.33313 9.97358 9.47361 9.72353 9.72365C9.47348 9.9737 9.33301 10.3128 9.33301 10.6665C9.33301 11.0201 9.47348 11.3592 9.72353 11.6093C9.97358 11.8593 10.3127 11.9998 10.6663 11.9998Z" fill="white"/>
<path d="M21.333 14.6669H10.6663C10.3127 14.6669 9.97358 14.8073 9.72353 15.0574C9.47348 15.3074 9.33301 15.6466 9.33301 16.0002C9.33301 16.3538 9.47348 16.693 9.72353 16.943C9.97358 17.1931 10.3127 17.3336 10.6663 17.3336H21.333C21.6866 17.3336 22.0258 17.1931 22.2758 16.943C22.5259 16.693 22.6663 16.3538 22.6663 16.0002C22.6663 15.6466 22.5259 15.3074 22.2758 15.0574C22.0258 14.8073 21.6866 14.6669 21.333 14.6669Z" fill="white"/>
<path d="M21.333 20H10.6663C10.3127 20 9.97358 20.1405 9.72353 20.3905C9.47348 20.6406 9.33301 20.9797 9.33301 21.3333C9.33301 21.687 9.47348 22.0261 9.72353 22.2762C9.97358 22.5262 10.3127 22.6667 10.6663 22.6667H21.333C21.6866 22.6667 22.0258 22.5262 22.2758 22.2762C22.5259 22.0261 22.6663 21.687 22.6663 21.3333C22.6663 20.9797 22.5259 20.6406 22.2758 20.3905C22.0258 20.1405 21.6866 20 21.333 20Z" fill="white"/>
</g>
<defs>
<clipPath id="clip0_1427_1377">
<rect width="32" height="32" fill="white"/>
</clipPath>
</defs>
</svg>
